<svg xmlns="http://www.w3.org/2000/svg" version="1.1" xmlns:xlink="http://www.w3.org/1999/xlink" xmlns:svgjs="http://svgjs.com/svgjs" width="1440" height="560" preserveAspectRatio="none" viewBox="0 0 1440 560"><g mask="url(&quot;#SvgjsMask1002&quot;)" fill="none"><path d="M248.14 641.22C394.41 613.94 455.9 250.38 692.49 245.29 929.09 240.2 914.67 315.29 1136.85 315.29 1359.02 315.29 1468.74 245.5 1581.2 245.29" stroke="rgba(207, 122, 121, 1)" stroke-width="2"></path><path d="M720 653.27C853.35 640.48 914.26 373.61 1167.74 358.86 1421.22 344.11 1494.44 177.64 1615.48 174.06" stroke="rgba(207, 122, 121, 1)" stroke-width="2"></path><path d="M253.27 588.22C430.3 583.2 563.54 327.53 909.62 321.72 1255.69 315.91 1396.24 149.58 1565.96 148.12" stroke="rgba(207, 122, 121, 1)" stroke-width="2"></path><path d="M338.2 587.83C513.5 585.55 659.19 386.61 1008.72 382.51 1358.25 378.41 1504.99 193.94 1679.24 192.11" stroke="rgba(207, 122, 121, 1)" stroke-width="2"></path><path d="M276.14 628.76C469.89 611.06 597.21 208.55 930.42 207.39 1263.64 206.23 1415.84 374.06 1584.71 375.39" stroke="rgba(207, 122, 121, 1)" stroke-width="2"></path></g><defs><mask id="SvgjsMask1002"><rect width="1440" height="560" fill="#ffffff"></rect></mask></defs></svg>